<?xml version="1.0" standalone="yes"?><svg version="1.1" xmlns="http://www.w3.org/2000/svg" xmlns:xlink="http://www.w3.org/1999/xlink" xmlns:ev="http://www.w3.org/2001/xml-events" width="451" height="451" shape-rendering="crispEdges"><rect width="11" height="11" x="0" y="0" fill="#000"/><rect width="11" height="11" x="11" y="0" fill="#000"/><rect width="11" height="11" x="22" y="0" fill="#000"/><rect width="11" height="11" x="33" y="0" fill="#000"/><rect width="11" height="11" x="44" y="0" fill="#000"/><rect width="11" height="11" x="55" y="0" fill="#000"/><rect width="11" height="11" x="66" y="0" fill="#000"/><rect width="11" height="11" x="88" y="0" fill="#000"/><rect width="11" height="11" x="99" y="0" fill="#000"/><rect width="11" height="11" x="132" y="0" fill="#000"/><rect width="11" height="11" x="143" y="0" fill="#000"/><rect width="11" height="11" x="176" y="0" fill="#000"/><rect width="11" height="11" x="187" y="0" fill="#000"/><rect width="11" height="11" x="209" y="0" fill="#000"/><rect width="11" height="11" x="220" y="0" fill="#000"/><rect width="11" height="11" x="253" y="0" fill="#000"/><rect width="11" height="11" x="275" y="0" fill="#000"/><rect width="11" height="11" x="286" y="0" fill="#000"/><rect width="11" height="11" x="297" y="0" fill="#000"/><rect width="11" height="11" x="330" y="0" fill="#000"/><rect width="11" height="11" x="341" y="0" fill="#000"/><rect width="11" height="11" x="374" y="0" fill="#000"/><rect width="11" height="11" x="385" y="0" fill="#000"/><rect width="11" height="11" x="396" y="0" fill="#000"/><rect width="11" height="11" x="407" y="0" fill="#000"/><rect width="11" height="11" x="418" y="0" fill="#000"/><rect width="11" height="11" x="429" y="0" fill="#000"/><rect width="11" height="11" x="440" y="0" fill="#000"/><rect width="11" height="11" x="0" y="11" fill="#000"/><rect width="11" height="11" x="66" y="11" fill="#000"/><rect width="11" height="11" x="110" y="11" fill="#000"/><rect width="11" height="11" x="132" y="11" fill="#000"/><rect width="11" height="11" x="143" y="11" fill="#000"/><rect width="11" height="11" x="165" y="11" fill="#000"/><rect width="11" height="11" x="187" y="11" fill="#000"/><rect width="11" height="11" x="209" y="11" fill="#000"/><rect width="11" height="11" x="220" y="11" fill="#000"/><rect width="11" height="11" x="253" y="11" fill="#000"/><rect width="11" height="11" x="264" y="11" fill="#000"/><rect width="11" height="11" x="286" y="11" fill="#000"/><rect width="11" height="11" x="297" y="11" fill="#000"/><rect width="11" height="11" x="308" y="11" fill="#000"/><rect width="11" height="11" x="319" y="11" fill="#000"/><rect width="11" height="11" x="341" y="11" fill="#000"/><rect width="11" height="11" x="352" y="11" fill="#000"/><rect width="11" height="11" x="374" y="11" fill="#000"/><rect width="11" height="11" x="440" y="11" fill="#000"/><rect width="11" height="11" x="0" y="22" fill="#000"/><rect width="11" height="11" x="22" y="22" fill="#000"/><rect width="11" height="11" x="33" y="22" fill="#000"/><rect width="11" height="11" x="44" y="22" fill="#000"/><rect width="11" height="11" x="66" y="22" fill="#000"/><rect width="11" height="11" x="99" y="22" fill="#000"/><rect width="11" height="11" x="143" y="22" fill="#000"/><rect width="11" height="11" x="154" y="22" fill="#000"/><rect width="11" height="11" x="165" y="22" fill="#000"/><rect width="11" height="11" x="176" y="22" fill="#000"/><rect width="11" height="11" x="187" y="22" fill="#000"/><rect width="11" height="11" x="231" y="22" fill="#000"/><rect width="11" height="11" x="242" y="22" fill="#000"/><rect width="11" height="11" x="275" y="22" fill="#000"/><rect width="11" height="11" x="286" y="22" fill="#000"/><rect width="11" height="11" x="297" y="22" fill="#000"/><rect width="11" height="11" x="308" y="22" fill="#000"/><rect width="11" height="11" x="374" y="22" fill="#000"/><rect width="11" height="11" x="396" y="22" fill="#000"/><rect width="11" height="11" x="407" y="22" fill="#000"/><rect width="11" height="11" x="418" y="22" fill="#000"/><rect width="11" height="11" x="440" y="22" fill="#000"/><rect width="11" height="11" x="0" y="33" fill="#000"/><rect width="11" height="11" x="22" y="33" fill="#000"/><rect width="11" height="11" x="33" y="33" fill="#000"/><rect width="11" height="11" x="44" y="33" fill="#000"/><rect width="11" height="11" x="66" y="33" fill="#000"/><rect width="11" height="11" x="88" y="33" fill="#000"/><rect width="11" height="11" x="121" y="33" fill="#000"/><rect width="11" height="11" x="132" y="33" fill="#000"/><rect width="11" height="11" x="143" y="33" fill="#000"/><rect width="11" height="11" x="154" y="33" fill="#000"/><rect width="11" height="11" x="176" y="33" fill="#000"/><rect width="11" height="11" x="220" y="33" fill="#000"/><rect width="11" height="11" x="231" y="33" fill="#000"/><rect width="11" height="11" x="242" y="33" fill="#000"/><rect width="11" height="11" x="264" y="33" fill="#000"/><rect width="11" height="11" x="275" y="33" fill="#000"/><rect width="11" height="11" x="286" y="33" fill="#000"/><rect width="11" height="11" x="297" y="33" fill="#000"/><rect width="11" height="11" x="319" y="33" fill="#000"/><rect width="11" height="11" x="341" y="33" fill="#000"/><rect width="11" height="11" x="352" y="33" fill="#000"/><rect width="11" height="11" x="374" y="33" fill="#000"/><rect width="11" height="11" x="396" y="33" fill="#000"/><rect width="11" height="11" x="407" y="33" fill="#000"/><rect width="11" height="11" x="418" y="33" fill="#000"/><rect width="11" height="11" x="440" y="33" fill="#000"/><rect width="11" height="11" x="0" y="44" fill="#000"/><rect width="11" height="11" x="22" y="44" fill="#000"/><rect width="11" height="11" x="33" y="44" fill="#000"/><rect width="11" height="11" x="44" y="44" fill="#000"/><rect width="11" height="11" x="66" y="44" fill="#000"/><rect width="11" height="11" x="132" y="44" fill="#000"/><rect width="11" height="11" x="143" y="44" fill="#000"/><rect width="11" height="11" x="176" y="44" fill="#000"/><rect width="11" height="11" x="198" y="44" fill="#000"/><rect width="11" height="11" x="253" y="44" fill="#000"/><rect width="11" height="11" x="264" y="44" fill="#000"/><rect width="11" height="11" x="275" y="44" fill="#000"/><rect width="11" height="11" x="286" y="44" fill="#000"/><rect width="11" height="11" x="297" y="44" fill="#000"/><rect width="11" height="11" x="341" y="44" fill="#000"/><rect width="11" height="11" x="374" y="44" fill="#000"/><rect width="11" height="11" x="396" y="44" fill="#000"/><rect width="11" height="11" x="407" y="44" fill="#000"/><rect width="11" height="11" x="418" y="44" fill="#000"/><rect width="11" height="11" x="440" y="44" fill="#000"/><rect width="11" height="11" x="0" y="55" fill="#000"/><rect width="11" height="11" x="66" y="55" fill="#000"/><rect width="11" height="11" x="110" y="55" fill="#000"/><rect width="11" height="11" x="121" y="55" fill="#000"/><rect width="11" height="11" x="132" y="55" fill="#000"/><rect width="11" height="11" x="143" y="55" fill="#000"/><rect width="11" height="11" x="154" y="55" fill="#000"/><rect width="11" height="11" x="165" y="55" fill="#000"/><rect width="11" height="11" x="176" y="55" fill="#000"/><rect width="11" height="11" x="220" y="55" fill="#000"/><rect width="11" height="11" x="264" y="55" fill="#000"/><rect width="11" height="11" x="297" y="55" fill="#000"/><rect width="11" height="11" x="341" y="55" fill="#000"/><rect width="11" height="11" x="352" y="55" fill="#000"/><rect width="11" height="11" x="374" y="55" fill="#000"/><rect width="11" height="11" x="440" y="55" fill="#000"/><rect width="11" height="11" x="0" y="66" fill="#000"/><rect width="11" height="11" x="11" y="66" fill="#000"/><rect width="11" height="11" x="22" y="66" fill="#000"/><rect width="11" height="11" x="33" y="66" fill="#000"/><rect width="11" height="11" x="44" y="66" fill="#000"/><rect width="11" height="11" x="55" y="66" fill="#000"/><rect width="11" height="11" x="66" y="66" fill="#000"/><rect width="11" height="11" x="88" y="66" fill="#000"/><rect width="11" height="11" x="110" y="66" fill="#000"/><rect width="11" height="11" x="132" y="66" fill="#000"/><rect width="11" height="11" x="154" y="66" fill="#000"/><rect width="11" height="11" x="176" y="66" fill="#000"/><rect width="11" height="11" x="198" y="66" fill="#000"/><rect width="11" height="11" x="220" y="66" fill="#000"/><rect width="11" height="11" x="242" y="66" fill="#000"/><rect width="11" height="11" x="264" y="66" fill="#000"/><rect width="11" height="11" x="286" y="66" fill="#000"/><rect width="11" height="11" x="308" y="66" fill="#000"/><rect width="11" height="11" x="330" y="66" fill="#000"/><rect width="11" height="11" x="352" y="66" fill="#000"/><rect width="11" height="11" x="374" y="66" fill="#000"/><rect width="11" height="11" x="385" y="66" fill="#000"/><rect width="11" height="11" x="396" y="66" fill="#000"/><rect width="11" height="11" x="407" y="66" fill="#000"/><rect width="11" height="11" x="418" y="66" fill="#000"/><rect width="11" height="11" x="429" y="66" fill="#000"/><rect width="11" height="11" x="440" y="66" fill="#000"/><rect width="11" height="11" x="99" y="77" fill="#000"/><rect width="11" height="11" x="121" y="77" fill="#000"/><rect width="11" height="11" x="132" y="77" fill="#000"/><rect width="11" height="11" x="154" y="77" fill="#000"/><rect width="11" height="11" x="209" y="77" fill="#000"/><rect width="11" height="11" x="231" y="77" fill="#000"/><rect width="11" height="11" x="242" y="77" fill="#000"/><rect width="11" height="11" x="253" y="77" fill="#000"/><rect width="11" height="11" x="264" y="77" fill="#000"/><rect width="11" height="11" x="297" y="77" fill="#000"/><rect width="11" height="11" x="308" y="77" fill="#000"/><rect width="11" height="11" x="319" y="77" fill="#000"/><rect width="11" height="11" x="352" y="77" fill="#000"/><rect width="11" height="11" x="22" y="88" fill="#000"/><rect width="11" height="11" x="44" y="88" fill="#000"/><rect width="11" height="11" x="55" y="88" fill="#000"/><rect width="11" height="11" x="66" y="88" fill="#000"/><rect width="11" height="11" x="88" y="88" fill="#000"/><rect width="11" height="11" x="121" y="88" fill="#000"/><rect width="11" height="11" x="165" y="88" fill="#000"/><rect width="11" height="11" x="176" y="88" fill="#000"/><rect width="11" height="11" x="187" y="88" fill="#000"/><rect width="11" height="11" x="198" y="88" fill="#000"/><rect width="11" height="11" x="209" y="88" fill="#000"/><rect width="11" height="11" x="220" y="88" fill="#000"/><rect width="11" height="11" x="231" y="88" fill="#000"/><rect width="11" height="11" x="275" y="88" fill="#000"/><rect width="11" height="11" x="297" y="88" fill="#000"/><rect width="11" height="11" x="319" y="88" fill="#000"/><rect width="11" height="11" x="341" y="88" fill="#000"/><rect width="11" height="11" x="363" y="88" fill="#000"/><rect width="11" height="11" x="407" y="88" fill="#000"/><rect width="11" height="11" x="440" y="88" fill="#000"/><rect width="11" height="11" x="11" y="99" fill="#000"/><rect width="11" height="11" x="77" y="99" fill="#000"/><rect width="11" height="11" x="88" y="99" fill="#000"/><rect width="11" height="11" x="99" y="99" fill="#000"/><rect width="11" height="11" x="110" y="99" fill="#000"/><rect width="11" height="11" x="154" y="99" fill="#000"/><rect width="11" height="11" x="187" y="99" fill="#000"/><rect width="11" height="11" x="220" y="99" fill="#000"/><rect width="11" height="11" x="231" y="99" fill="#000"/><rect width="11" height="11" x="286" y="99" fill="#000"/><rect width="11" height="11" x="308" y="99" fill="#000"/><rect width="11" height="11" x="319" y="99" fill="#000"/><rect width="11" height="11" x="352" y="99" fill="#000"/><rect width="11" height="11" x="363" y="99" fill="#000"/><rect width="11" height="11" x="374" y="99" fill="#000"/><rect width="11" height="11" x="407" y="99" fill="#000"/><rect width="11" height="11" x="418" y="99" fill="#000"/><rect width="11" height="11" x="429" y="99" fill="#000"/><rect width="11" height="11" x="440" y="99" fill="#000"/><rect width="11" height="11" x="22" y="110" fill="#000"/><rect width="11" height="11" x="33" y="110" fill="#000"/><rect width="11" height="11" x="55" y="110" fill="#000"/><rect width="11" height="11" x="66" y="110" fill="#000"/><rect width="11" height="11" x="77" y="110" fill="#000"/><rect width="11" height="11" x="88" y="110" fill="#000"/><rect width="11" height="11" x="99" y="110" fill="#000"/><rect width="11" height="11" x="121" y="110" fill="#000"/><rect width="11" height="11" x="132" y="110" fill="#000"/><rect width="11" height="11" x="143" y="110" fill="#000"/><rect width="11" height="11" x="176" y="110" fill="#000"/><rect width="11" height="11" x="187" y="110" fill="#000"/><rect width="11" height="11" x="198" y="110" fill="#000"/><rect width="11" height="11" x="209" y="110" fill="#000"/><rect width="11" height="11" x="231" y="110" fill="#000"/><rect width="11" height="11" x="275" y="110" fill="#000"/><rect width="11" height="11" x="330" y="110" fill="#000"/><rect width="11" height="11" x="363" y="110" fill="#000"/><rect width="11" height="11" x="385" y="110" fill="#000"/><rect width="11" height="11" x="396" y="110" fill="#000"/><rect width="11" height="11" x="418" y="110" fill="#000"/><rect width="11" height="11" x="440" y="110" fill="#000"/><rect width="11" height="11" x="0" y="121" fill="#000"/><rect width="11" height="11" x="44" y="121" fill="#000"/><rect width="11" height="11" x="55" y="121" fill="#000"/><rect width="11" height="11" x="88" y="121" fill="#000"/><rect width="11" height="11" x="110" y="121" fill="#000"/><rect width="11" height="11" x="121" y="121" fill="#000"/><rect width="11" height="11" x="132" y="121" fill="#000"/><rect width="11" height="11" x="143" y="121" fill="#000"/><rect width="11" height="11" x="165" y="121" fill="#000"/><rect width="11" height="11" x="187" y="121" fill="#000"/><rect width="11" height="11" x="198" y="121" fill="#000"/><rect width="11" height="11" x="209" y="121" fill="#000"/><rect width="11" height="11" x="220" y="121" fill="#000"/><rect width="11" height="11" x="231" y="121" fill="#000"/><rect width="11" height="11" x="242" y="121" fill="#000"/><rect width="11" height="11" x="253" y="121" fill="#000"/><rect width="11" height="11" x="275" y="121" fill="#000"/><rect width="11" height="11" x="286" y="121" fill="#000"/><rect width="11" height="11" x="297" y="121" fill="#000"/><rect width="11" height="11" x="308" y="121" fill="#000"/><rect width="11" height="11" x="319" y="121" fill="#000"/><rect width="11" height="11" x="352" y="121" fill="#000"/><rect width="11" height="11" x="363" y="121" fill="#000"/><rect width="11" height="11" x="385" y="121" fill="#000"/><rect width="11" height="11" x="440" y="121" fill="#000"/><rect width="11" height="11" x="11" y="132" fill="#000"/><rect width="11" height="11" x="22" y="132" fill="#000"/><rect width="11" height="11" x="33" y="132" fill="#000"/><rect width="11" height="11" x="55" y="132" fill="#000"/><rect width="11" height="11" x="66" y="132" fill="#000"/><rect width="11" height="11" x="99" y="132" fill="#000"/><rect width="11" height="11" x="132" y="132" fill="#000"/><rect width="11" height="11" x="154" y="132" fill="#000"/><rect width="11" height="11" x="165" y="132" fill="#000"/><rect width="11" height="11" x="187" y="132" fill="#000"/><rect width="11" height="11" x="253" y="132" fill="#000"/><rect width="11" height="11" x="319" y="132" fill="#000"/><rect width="11" height="11" x="341" y="132" fill="#000"/><rect width="11" height="11" x="352" y="132" fill="#000"/><rect width="11" height="11" x="374" y="132" fill="#000"/><rect width="11" height="11" x="407" y="132" fill="#000"/><rect width="11" height="11" x="440" y="132" fill="#000"/><rect width="11" height="11" x="0" y="143" fill="#000"/><rect width="11" height="11" x="22" y="143" fill="#000"/><rect width="11" height="11" x="33" y="143" fill="#000"/><rect width="11" height="11" x="44" y="143" fill="#000"/><rect width="11" height="11" x="55" y="143" fill="#000"/><rect width="11" height="11" x="77" y="143" fill="#000"/><rect width="11" height="11" x="99" y="143" fill="#000"/><rect width="11" height="11" x="121" y="143" fill="#000"/><rect width="11" height="11" x="143" y="143" fill="#000"/><rect width="11" height="11" x="187" y="143" fill="#000"/><rect width="11" height="11" x="198" y="143" fill="#000"/><rect width="11" height="11" x="231" y="143" fill="#000"/><rect width="11" height="11" x="297" y="143" fill="#000"/><rect width="11" height="11" x="319" y="143" fill="#000"/><rect width="11" height="11" x="341" y="143" fill="#000"/><rect width="11" height="11" x="352" y="143" fill="#000"/><rect width="11" height="11" x="363" y="143" fill="#000"/><rect width="11" height="11" x="374" y="143" fill="#000"/><rect width="11" height="11" x="407" y="143" fill="#000"/><rect width="11" height="11" x="418" y="143" fill="#000"/><rect width="11" height="11" x="440" y="143" fill="#000"/><rect width="11" height="11" x="22" y="154" fill="#000"/><rect width="11" height="11" x="33" y="154" fill="#000"/><rect width="11" height="11" x="66" y="154" fill="#000"/><rect width="11" height="11" x="110" y="154" fill="#000"/><rect width="11" height="11" x="143" y="154" fill="#000"/><rect width="11" height="11" x="165" y="154" fill="#000"/><rect width="11" height="11" x="209" y="154" fill="#000"/><rect width="11" height="11" x="220" y="154" fill="#000"/><rect width="11" height="11" x="253" y="154" fill="#000"/><rect width="11" height="11" x="264" y="154" fill="#000"/><rect width="11" height="11" x="286" y="154" fill="#000"/><rect width="11" height="11" x="330" y="154" fill="#000"/><rect width="11" height="11" x="341" y="154" fill="#000"/><rect width="11" height="11" x="352" y="154" fill="#000"/><rect width="11" height="11" x="374" y="154" fill="#000"/><rect width="11" height="11" x="407" y="154" fill="#000"/><rect width="11" height="11" x="418" y="154" fill="#000"/><rect width="11" height="11" x="429" y="154" fill="#000"/><rect width="11" height="11" x="440" y="154" fill="#000"/><rect width="11" height="11" x="0" y="165" fill="#000"/><rect width="11" height="11" x="33" y="165" fill="#000"/><rect width="11" height="11" x="44" y="165" fill="#000"/><rect width="11" height="11" x="55" y="165" fill="#000"/><rect width="11" height="11" x="99" y="165" fill="#000"/><rect width="11" height="11" x="110" y="165" fill="#000"/><rect width="11" height="11" x="143" y="165" fill="#000"/><rect width="11" height="11" x="154" y="165" fill="#000"/><rect width="11" height="11" x="198" y="165" fill="#000"/><rect width="11" height="11" x="209" y="165" fill="#000"/><rect width="11" height="11" x="220" y="165" fill="#000"/><rect width="11" height="11" x="242" y="165" fill="#000"/><rect width="11" height="11" x="253" y="165" fill="#000"/><rect width="11" height="11" x="286" y="165" fill="#000"/><rect width="11" height="11" x="297" y="165" fill="#000"/><rect width="11" height="11" x="319" y="165" fill="#000"/><rect width="11" height="11" x="330" y="165" fill="#000"/><rect width="11" height="11" x="352" y="165" fill="#000"/><rect width="11" height="11" x="374" y="165" fill="#000"/><rect width="11" height="11" x="396" y="165" fill="#000"/><rect width="11" height="11" x="440" y="165" fill="#000"/><rect width="11" height="11" x="11" y="176" fill="#000"/><rect width="11" height="11" x="33" y="176" fill="#000"/><rect width="11" height="11" x="66" y="176" fill="#000"/><rect width="11" height="11" x="132" y="176" fill="#000"/><rect width="11" height="11" x="165" y="176" fill="#000"/><rect width="11" height="11" x="176" y="176" fill="#000"/><rect width="11" height="11" x="187" y="176" fill="#000"/><rect width="11" height="11" x="209" y="176" fill="#000"/><rect width="11" height="11" x="231" y="176" fill="#000"/><rect width="11" height="11" x="264" y="176" fill="#000"/><rect width="11" height="11" x="308" y="176" fill="#000"/><rect width="11" height="11" x="319" y="176" fill="#000"/><rect width="11" height="11" x="330" y="176" fill="#000"/><rect width="11" height="11" x="341" y="176" fill="#000"/><rect width="11" height="11" x="374" y="176" fill="#000"/><rect width="11" height="11" x="385" y="176" fill="#000"/><rect width="11" height="11" x="440" y="176" fill="#000"/><rect width="11" height="11" x="0" y="187" fill="#000"/><rect width="11" height="11" x="11" y="187" fill="#000"/><rect width="11" height="11" x="22" y="187" fill="#000"/><rect width="11" height="11" x="88" y="187" fill="#000"/><rect width="11" height="11" x="110" y="187" fill="#000"/><rect width="11" height="11" x="132" y="187" fill="#000"/><rect width="11" height="11" x="154" y="187" fill="#000"/><rect width="11" height="11" x="176" y="187" fill="#000"/><rect width="11" height="11" x="198" y="187" fill="#000"/><rect width="11" height="11" x="220" y="187" fill="#000"/><rect width="11" height="11" x="242" y="187" fill="#000"/><rect width="11" height="11" x="253" y="187" fill="#000"/><rect width="11" height="11" x="264" y="187" fill="#000"/><rect width="11" height="11" x="275" y="187" fill="#000"/><rect width="11" height="11" x="286" y="187" fill="#000"/><rect width="11" height="11" x="308" y="187" fill="#000"/><rect width="11" height="11" x="352" y="187" fill="#000"/><rect width="11" height="11" x="374" y="187" fill="#000"/><rect width="11" height="11" x="429" y="187" fill="#000"/><rect width="11" height="11" x="440" y="187" fill="#000"/><rect width="11" height="11" x="33" y="198" fill="#000"/><rect width="11" height="11" x="55" y="198" fill="#000"/><rect width="11" height="11" x="66" y="198" fill="#000"/><rect width="11" height="11" x="88" y="198" fill="#000"/><rect width="11" height="11" x="99" y="198" fill="#000"/><rect width="11" height="11" x="121" y="198" fill="#000"/><rect width="11" height="11" x="132" y="198" fill="#000"/><rect width="11" height="11" x="154" y="198" fill="#000"/><rect width="11" height="11" x="165" y="198" fill="#000"/><rect width="11" height="11" x="176" y="198" fill="#000"/><rect width="11" height="11" x="187" y="198" fill="#000"/><rect width="11" height="11" x="198" y="198" fill="#000"/><rect width="11" height="11" x="220" y="198" fill="#000"/><rect width="11" height="11" x="231" y="198" fill="#000"/><rect width="11" height="11" x="264" y="198" fill="#000"/><rect width="11" height="11" x="319" y="198" fill="#000"/><rect width="11" height="11" x="352" y="198" fill="#000"/><rect width="11" height="11" x="374" y="198" fill="#000"/><rect width="11" height="11" x="396" y="198" fill="#000"/><rect width="11" height="11" x="418" y="198" fill="#000"/><rect width="11" height="11" x="429" y="198" fill="#000"/><rect width="11" height="11" x="440" y="198" fill="#000"/><rect width="11" height="11" x="11" y="209" fill="#000"/><rect width="11" height="11" x="22" y="209" fill="#000"/><rect width="11" height="11" x="33" y="209" fill="#000"/><rect width="11" height="11" x="88" y="209" fill="#000"/><rect width="11" height="11" x="110" y="209" fill="#000"/><rect width="11" height="11" x="143" y="209" fill="#000"/><rect width="11" height="11" x="176" y="209" fill="#000"/><rect width="11" height="11" x="187" y="209" fill="#000"/><rect width="11" height="11" x="209" y="209" fill="#000"/><rect width="11" height="11" x="242" y="209" fill="#000"/><rect width="11" height="11" x="253" y="209" fill="#000"/><rect width="11" height="11" x="275" y="209" fill="#000"/><rect width="11" height="11" x="286" y="209" fill="#000"/><rect width="11" height="11" x="297" y="209" fill="#000"/><rect width="11" height="11" x="341" y="209" fill="#000"/><rect width="11" height="11" x="374" y="209" fill="#000"/><rect width="11" height="11" x="385" y="209" fill="#000"/><rect width="11" height="11" x="440" y="209" fill="#000"/><rect width="11" height="11" x="11" y="220" fill="#000"/><rect width="11" height="11" x="22" y="220" fill="#000"/><rect width="11" height="11" x="55" y="220" fill="#000"/><rect width="11" height="11" x="66" y="220" fill="#000"/><rect width="11" height="11" x="88" y="220" fill="#000"/><rect width="11" height="11" x="99" y="220" fill="#000"/><rect width="11" height="11" x="110" y="220" fill="#000"/><rect width="11" height="11" x="154" y="220" fill="#000"/><rect width="11" height="11" x="165" y="220" fill="#000"/><rect width="11" height="11" x="198" y="220" fill="#000"/><rect width="11" height="11" x="209" y="220" fill="#000"/><rect width="11" height="11" x="231" y="220" fill="#000"/><rect width="11" height="11" x="242" y="220" fill="#000"/><rect width="11" height="11" x="286" y="220" fill="#000"/><rect width="11" height="11" x="297" y="220" fill="#000"/><rect width="11" height="11" x="308" y="220" fill="#000"/><rect width="11" height="11" x="341" y="220" fill="#000"/><rect width="11" height="11" x="352" y="220" fill="#000"/><rect width="11" height="11" x="363" y="220" fill="#000"/><rect width="11" height="11" x="374" y="220" fill="#000"/><rect width="11" height="11" x="407" y="220" fill="#000"/><rect width="11" height="11" x="440" y="220" fill="#000"/><rect width="11" height="11" x="33" y="231" fill="#000"/><rect width="11" height="11" x="77" y="231" fill="#000"/><rect width="11" height="11" x="121" y="231" fill="#000"/><rect width="11" height="11" x="165" y="231" fill="#000"/><rect width="11" height="11" x="176" y="231" fill="#000"/><rect width="11" height="11" x="187" y="231" fill="#000"/><rect width="11" height="11" x="198" y="231" fill="#000"/><rect width="11" height="11" x="209" y="231" fill="#000"/><rect width="11" height="11" x="231" y="231" fill="#000"/><rect width="11" height="11" x="264" y="231" fill="#000"/><rect width="11" height="11" x="275" y="231" fill="#000"/><rect width="11" height="11" x="308" y="231" fill="#000"/><rect width="11" height="11" x="319" y="231" fill="#000"/><rect width="11" height="11" x="363" y="231" fill="#000"/><rect width="11" height="11" x="374" y="231" fill="#000"/><rect width="11" height="11" x="418" y="231" fill="#000"/><rect width="11" height="11" x="429" y="231" fill="#000"/><rect width="11" height="11" x="440" y="231" fill="#000"/><rect width="11" height="11" x="0" y="242" fill="#000"/><rect width="11" height="11" x="11" y="242" fill="#000"/><rect width="11" height="11" x="22" y="242" fill="#000"/><rect width="11" height="11" x="44" y="242" fill="#000"/><rect width="11" height="11" x="66" y="242" fill="#000"/><rect width="11" height="11" x="110" y="242" fill="#000"/><rect width="11" height="11" x="165" y="242" fill="#000"/><rect width="11" height="11" x="176" y="242" fill="#000"/><rect width="11" height="11" x="209" y="242" fill="#000"/><rect width="11" height="11" x="220" y="242" fill="#000"/><rect width="11" height="11" x="242" y="242" fill="#000"/><rect width="11" height="11" x="264" y="242" fill="#000"/><rect width="11" height="11" x="286" y="242" fill="#000"/><rect width="11" height="11" x="330" y="242" fill="#000"/><rect width="11" height="11" x="363" y="242" fill="#000"/><rect width="11" height="11" x="374" y="242" fill="#000"/><rect width="11" height="11" x="385" y="242" fill="#000"/><rect width="11" height="11" x="407" y="242" fill="#000"/><rect width="11" height="11" x="418" y="242" fill="#000"/><rect width="11" height="11" x="429" y="242" fill="#000"/><rect width="11" height="11" x="440" y="242" fill="#000"/><rect width="11" height="11" x="11" y="253" fill="#000"/><rect width="11" height="11" x="22" y="253" fill="#000"/><rect width="11" height="11" x="55" y="253" fill="#000"/><rect width="11" height="11" x="99" y="253" fill="#000"/><rect width="11" height="11" x="121" y="253" fill="#000"/><rect width="11" height="11" x="143" y="253" fill="#000"/><rect width="11" height="11" x="154" y="253" fill="#000"/><rect width="11" height="11" x="165" y="253" fill="#000"/><rect width="11" height="11" x="187" y="253" fill="#000"/><rect width="11" height="11" x="198" y="253" fill="#000"/><rect width="11" height="11" x="209" y="253" fill="#000"/><rect width="11" height="11" x="242" y="253" fill="#000"/><rect width="11" height="11" x="264" y="253" fill="#000"/><rect width="11" height="11" x="297" y="253" fill="#000"/><rect width="11" height="11" x="319" y="253" fill="#000"/><rect width="11" height="11" x="330" y="253" fill="#000"/><rect width="11" height="11" x="341" y="253" fill="#000"/><rect width="11" height="11" x="352" y="253" fill="#000"/><rect width="11" height="11" x="396" y="253" fill="#000"/><rect width="11" height="11" x="440" y="253" fill="#000"/><rect width="11" height="11" x="0" y="264" fill="#000"/><rect width="11" height="11" x="66" y="264" fill="#000"/><rect width="11" height="11" x="99" y="264" fill="#000"/><rect width="11" height="11" x="121" y="264" fill="#000"/><rect width="11" height="11" x="132" y="264" fill="#000"/><rect width="11" height="11" x="154" y="264" fill="#000"/><rect width="11" height="11" x="198" y="264" fill="#000"/><rect width="11" height="11" x="231" y="264" fill="#000"/><rect width="11" height="11" x="253" y="264" fill="#000"/><rect width="11" height="11" x="264" y="264" fill="#000"/><rect width="11" height="11" x="275" y="264" fill="#000"/><rect width="11" height="11" x="286" y="264" fill="#000"/><rect width="11" height="11" x="297" y="264" fill="#000"/><rect width="11" height="11" x="308" y="264" fill="#000"/><rect width="11" height="11" x="319" y="264" fill="#000"/><rect width="11" height="11" x="341" y="264" fill="#000"/><rect width="11" height="11" x="352" y="264" fill="#000"/><rect width="11" height="11" x="363" y="264" fill="#000"/><rect width="11" height="11" x="374" y="264" fill="#000"/><rect width="11" height="11" x="385" y="264" fill="#000"/><rect width="11" height="11" x="407" y="264" fill="#000"/><rect width="11" height="11" x="440" y="264" fill="#000"/><rect width="11" height="11" x="0" y="275" fill="#000"/><rect width="11" height="11" x="33" y="275" fill="#000"/><rect width="11" height="11" x="44" y="275" fill="#000"/><rect width="11" height="11" x="110" y="275" fill="#000"/><rect width="11" height="11" x="132" y="275" fill="#000"/><rect width="11" height="11" x="165" y="275" fill="#000"/><rect width="11" height="11" x="176" y="275" fill="#000"/><rect width="11" height="11" x="187" y="275" fill="#000"/><rect width="11" height="11" x="264" y="275" fill="#000"/><rect width="11" height="11" x="286" y="275" fill="#000"/><rect width="11" height="11" x="308" y="275" fill="#000"/><rect width="11" height="11" x="330" y="275" fill="#000"/><rect width="11" height="11" x="363" y="275" fill="#000"/><rect width="11" height="11" x="374" y="275" fill="#000"/><rect width="11" height="11" x="440" y="275" fill="#000"/><rect width="11" height="11" x="11" y="286" fill="#000"/><rect width="11" height="11" x="66" y="286" fill="#000"/><rect width="11" height="11" x="88" y="286" fill="#000"/><rect width="11" height="11" x="99" y="286" fill="#000"/><rect width="11" height="11" x="121" y="286" fill="#000"/><rect width="11" height="11" x="165" y="286" fill="#000"/><rect width="11" height="11" x="176" y="286" fill="#000"/><rect width="11" height="11" x="253" y="286" fill="#000"/><rect width="11" height="11" x="264" y="286" fill="#000"/><rect width="11" height="11" x="286" y="286" fill="#000"/><rect width="11" height="11" x="308" y="286" fill="#000"/><rect width="11" height="11" x="363" y="286" fill="#000"/><rect width="11" height="11" x="385" y="286" fill="#000"/><rect width="11" height="11" x="418" y="286" fill="#000"/><rect width="11" height="11" x="429" y="286" fill="#000"/><rect width="11" height="11" x="440" y="286" fill="#000"/><rect width="11" height="11" x="0" y="297" fill="#000"/><rect width="11" height="11" x="33" y="297" fill="#000"/><rect width="11" height="11" x="44" y="297" fill="#000"/><rect width="11" height="11" x="55" y="297" fill="#000"/><rect width="11" height="11" x="77" y="297" fill="#000"/><rect width="11" height="11" x="110" y="297" fill="#000"/><rect width="11" height="11" x="121" y="297" fill="#000"/><rect width="11" height="11" x="154" y="297" fill="#000"/><rect width="11" height="11" x="187" y="297" fill="#000"/><rect width="11" height="11" x="198" y="297" fill="#000"/><rect width="11" height="11" x="209" y="297" fill="#000"/><rect width="11" height="11" x="220" y="297" fill="#000"/><rect width="11" height="11" x="264" y="297" fill="#000"/><rect width="11" height="11" x="275" y="297" fill="#000"/><rect width="11" height="11" x="308" y="297" fill="#000"/><rect width="11" height="11" x="319" y="297" fill="#000"/><rect width="11" height="11" x="352" y="297" fill="#000"/><rect width="11" height="11" x="396" y="297" fill="#000"/><rect width="11" height="11" x="440" y="297" fill="#000"/><rect width="11" height="11" x="0" y="308" fill="#000"/><rect width="11" height="11" x="33" y="308" fill="#000"/><rect width="11" height="11" x="44" y="308" fill="#000"/><rect width="11" height="11" x="66" y="308" fill="#000"/><rect width="11" height="11" x="77" y="308" fill="#000"/><rect width="11" height="11" x="110" y="308" fill="#000"/><rect width="11" height="11" x="121" y="308" fill="#000"/><rect width="11" height="11" x="143" y="308" fill="#000"/><rect width="11" height="11" x="165" y="308" fill="#000"/><rect width="11" height="11" x="187" y="308" fill="#000"/><rect width="11" height="11" x="209" y="308" fill="#000"/><rect width="11" height="11" x="220" y="308" fill="#000"/><rect width="11" height="11" x="231" y="308" fill="#000"/><rect width="11" height="11" x="242" y="308" fill="#000"/><rect width="11" height="11" x="253" y="308" fill="#000"/><rect width="11" height="11" x="264" y="308" fill="#000"/><rect width="11" height="11" x="308" y="308" fill="#000"/><rect width="11" height="11" x="319" y="308" fill="#000"/><rect width="11" height="11" x="341" y="308" fill="#000"/><rect width="11" height="11" x="352" y="308" fill="#000"/><rect width="11" height="11" x="363" y="308" fill="#000"/><rect width="11" height="11" x="374" y="308" fill="#000"/><rect width="11" height="11" x="407" y="308" fill="#000"/><rect width="11" height="11" x="22" y="319" fill="#000"/><rect width="11" height="11" x="33" y="319" fill="#000"/><rect width="11" height="11" x="44" y="319" fill="#000"/><rect width="11" height="11" x="99" y="319" fill="#000"/><rect width="11" height="11" x="132" y="319" fill="#000"/><rect width="11" height="11" x="154" y="319" fill="#000"/><rect width="11" height="11" x="165" y="319" fill="#000"/><rect width="11" height="11" x="176" y="319" fill="#000"/><rect width="11" height="11" x="198" y="319" fill="#000"/><rect width="11" height="11" x="220" y="319" fill="#000"/><rect width="11" height="11" x="286" y="319" fill="#000"/><rect width="11" height="11" x="297" y="319" fill="#000"/><rect width="11" height="11" x="308" y="319" fill="#000"/><rect width="11" height="11" x="341" y="319" fill="#000"/><rect width="11" height="11" x="363" y="319" fill="#000"/><rect width="11" height="11" x="374" y="319" fill="#000"/><rect width="11" height="11" x="385" y="319" fill="#000"/><rect width="11" height="11" x="418" y="319" fill="#000"/><rect width="11" height="11" x="440" y="319" fill="#000"/><rect width="11" height="11" x="0" y="330" fill="#000"/><rect width="11" height="11" x="33" y="330" fill="#000"/><rect width="11" height="11" x="55" y="330" fill="#000"/><rect width="11" height="11" x="66" y="330" fill="#000"/><rect width="11" height="11" x="77" y="330" fill="#000"/><rect width="11" height="11" x="88" y="330" fill="#000"/><rect width="11" height="11" x="99" y="330" fill="#000"/><rect width="11" height="11" x="110" y="330" fill="#000"/><rect width="11" height="11" x="121" y="330" fill="#000"/><rect width="11" height="11" x="154" y="330" fill="#000"/><rect width="11" height="11" x="165" y="330" fill="#000"/><rect width="11" height="11" x="187" y="330" fill="#000"/><rect width="11" height="11" x="209" y="330" fill="#000"/><rect width="11" height="11" x="264" y="330" fill="#000"/><rect width="11" height="11" x="297" y="330" fill="#000"/><rect width="11" height="11" x="308" y="330" fill="#000"/><rect width="11" height="11" x="407" y="330" fill="#000"/><rect width="11" height="11" x="429" y="330" fill="#000"/><rect width="11" height="11" x="440" y="330" fill="#000"/><rect width="11" height="11" x="11" y="341" fill="#000"/><rect width="11" height="11" x="22" y="341" fill="#000"/><rect width="11" height="11" x="44" y="341" fill="#000"/><rect width="11" height="11" x="110" y="341" fill="#000"/><rect width="11" height="11" x="121" y="341" fill="#000"/><rect width="11" height="11" x="132" y="341" fill="#000"/><rect width="11" height="11" x="154" y="341" fill="#000"/><rect width="11" height="11" x="165" y="341" fill="#000"/><rect width="11" height="11" x="187" y="341" fill="#000"/><rect width="11" height="11" x="209" y="341" fill="#000"/><rect width="11" height="11" x="242" y="341" fill="#000"/><rect width="11" height="11" x="253" y="341" fill="#000"/><rect width="11" height="11" x="264" y="341" fill="#000"/><rect width="11" height="11" x="275" y="341" fill="#000"/><rect width="11" height="11" x="308" y="341" fill="#000"/><rect width="11" height="11" x="319" y="341" fill="#000"/><rect width="11" height="11" x="330" y="341" fill="#000"/><rect width="11" height="11" x="341" y="341" fill="#000"/><rect width="11" height="11" x="363" y="341" fill="#000"/><rect width="11" height="11" x="374" y="341" fill="#000"/><rect width="11" height="11" x="396" y="341" fill="#000"/><rect width="11" height="11" x="0" y="352" fill="#000"/><rect width="11" height="11" x="22" y="352" fill="#000"/><rect width="11" height="11" x="33" y="352" fill="#000"/><rect width="11" height="11" x="44" y="352" fill="#000"/><rect width="11" height="11" x="55" y="352" fill="#000"/><rect width="11" height="11" x="66" y="352" fill="#000"/><rect width="11" height="11" x="99" y="352" fill="#000"/><rect width="11" height="11" x="110" y="352" fill="#000"/><rect width="11" height="11" x="121" y="352" fill="#000"/><rect width="11" height="11" x="154" y="352" fill="#000"/><rect width="11" height="11" x="176" y="352" fill="#000"/><rect width="11" height="11" x="187" y="352" fill="#000"/><rect width="11" height="11" x="209" y="352" fill="#000"/><rect width="11" height="11" x="220" y="352" fill="#000"/><rect width="11" height="11" x="231" y="352" fill="#000"/><rect width="11" height="11" x="264" y="352" fill="#000"/><rect width="11" height="11" x="286" y="352" fill="#000"/><rect width="11" height="11" x="297" y="352" fill="#000"/><rect width="11" height="11" x="308" y="352" fill="#000"/><rect width="11" height="11" x="319" y="352" fill="#000"/><rect width="11" height="11" x="341" y="352" fill="#000"/><rect width="11" height="11" x="352" y="352" fill="#000"/><rect width="11" height="11" x="363" y="352" fill="#000"/><rect width="11" height="11" x="374" y="352" fill="#000"/><rect width="11" height="11" x="385" y="352" fill="#000"/><rect width="11" height="11" x="396" y="352" fill="#000"/><rect width="11" height="11" x="88" y="363" fill="#000"/><rect width="11" height="11" x="99" y="363" fill="#000"/><rect width="11" height="11" x="121" y="363" fill="#000"/><rect width="11" height="11" x="132" y="363" fill="#000"/><rect width="11" height="11" x="143" y="363" fill="#000"/><rect width="11" height="11" x="165" y="363" fill="#000"/><rect width="11" height="11" x="187" y="363" fill="#000"/><rect width="11" height="11" x="220" y="363" fill="#000"/><rect width="11" height="11" x="231" y="363" fill="#000"/><rect width="11" height="11" x="253" y="363" fill="#000"/><rect width="11" height="11" x="264" y="363" fill="#000"/><rect width="11" height="11" x="275" y="363" fill="#000"/><rect width="11" height="11" x="286" y="363" fill="#000"/><rect width="11" height="11" x="308" y="363" fill="#000"/><rect width="11" height="11" x="319" y="363" fill="#000"/><rect width="11" height="11" x="330" y="363" fill="#000"/><rect width="11" height="11" x="341" y="363" fill="#000"/><rect width="11" height="11" x="352" y="363" fill="#000"/><rect width="11" height="11" x="396" y="363" fill="#000"/><rect width="11" height="11" x="407" y="363" fill="#000"/><rect width="11" height="11" x="440" y="363" fill="#000"/><rect width="11" height="11" x="0" y="374" fill="#000"/><rect width="11" height="11" x="11" y="374" fill="#000"/><rect width="11" height="11" x="22" y="374" fill="#000"/><rect width="11" height="11" x="33" y="374" fill="#000"/><rect width="11" height="11" x="44" y="374" fill="#000"/><rect width="11" height="11" x="55" y="374" fill="#000"/><rect width="11" height="11" x="66" y="374" fill="#000"/><rect width="11" height="11" x="121" y="374" fill="#000"/><rect width="11" height="11" x="132" y="374" fill="#000"/><rect width="11" height="11" x="165" y="374" fill="#000"/><rect width="11" height="11" x="176" y="374" fill="#000"/><rect width="11" height="11" x="187" y="374" fill="#000"/><rect width="11" height="11" x="198" y="374" fill="#000"/><rect width="11" height="11" x="231" y="374" fill="#000"/><rect width="11" height="11" x="253" y="374" fill="#000"/><rect width="11" height="11" x="275" y="374" fill="#000"/><rect width="11" height="11" x="286" y="374" fill="#000"/><rect width="11" height="11" x="308" y="374" fill="#000"/><rect width="11" height="11" x="330" y="374" fill="#000"/><rect width="11" height="11" x="341" y="374" fill="#000"/><rect width="11" height="11" x="352" y="374" fill="#000"/><rect width="11" height="11" x="374" y="374" fill="#000"/><rect width="11" height="11" x="396" y="374" fill="#000"/><rect width="11" height="11" x="407" y="374" fill="#000"/><rect width="11" height="11" x="429" y="374" fill="#000"/><rect width="11" height="11" x="440" y="374" fill="#000"/><rect width="11" height="11" x="0" y="385" fill="#000"/><rect width="11" height="11" x="66" y="385" fill="#000"/><rect width="11" height="11" x="88" y="385" fill="#000"/><rect width="11" height="11" x="143" y="385" fill="#000"/><rect width="11" height="11" x="231" y="385" fill="#000"/><rect width="11" height="11" x="242" y="385" fill="#000"/><rect width="11" height="11" x="275" y="385" fill="#000"/><rect width="11" height="11" x="286" y="385" fill="#000"/><rect width="11" height="11" x="297" y="385" fill="#000"/><rect width="11" height="11" x="319" y="385" fill="#000"/><rect width="11" height="11" x="330" y="385" fill="#000"/><rect width="11" height="11" x="352" y="385" fill="#000"/><rect width="11" height="11" x="396" y="385" fill="#000"/><rect width="11" height="11" x="407" y="385" fill="#000"/><rect width="11" height="11" x="429" y="385" fill="#000"/><rect width="11" height="11" x="440" y="385" fill="#000"/><rect width="11" height="11" x="0" y="396" fill="#000"/><rect width="11" height="11" x="22" y="396" fill="#000"/><rect width="11" height="11" x="33" y="396" fill="#000"/><rect width="11" height="11" x="44" y="396" fill="#000"/><rect width="11" height="11" x="66" y="396" fill="#000"/><rect width="11" height="11" x="88" y="396" fill="#000"/><rect width="11" height="11" x="132" y="396" fill="#000"/><rect width="11" height="11" x="143" y="396" fill="#000"/><rect width="11" height="11" x="165" y="396" fill="#000"/><rect width="11" height="11" x="176" y="396" fill="#000"/><rect width="11" height="11" x="187" y="396" fill="#000"/><rect width="11" height="11" x="198" y="396" fill="#000"/><rect width="11" height="11" x="209" y="396" fill="#000"/><rect width="11" height="11" x="231" y="396" fill="#000"/><rect width="11" height="11" x="253" y="396" fill="#000"/><rect width="11" height="11" x="264" y="396" fill="#000"/><rect width="11" height="11" x="330" y="396" fill="#000"/><rect width="11" height="11" x="352" y="396" fill="#000"/><rect width="11" height="11" x="363" y="396" fill="#000"/><rect width="11" height="11" x="374" y="396" fill="#000"/><rect width="11" height="11" x="385" y="396" fill="#000"/><rect width="11" height="11" x="396" y="396" fill="#000"/><rect width="11" height="11" x="440" y="396" fill="#000"/><rect width="11" height="11" x="0" y="407" fill="#000"/><rect width="11" height="11" x="22" y="407" fill="#000"/><rect width="11" height="11" x="33" y="407" fill="#000"/><rect width="11" height="11" x="44" y="407" fill="#000"/><rect width="11" height="11" x="66" y="407" fill="#000"/><rect width="11" height="11" x="110" y="407" fill="#000"/><rect width="11" height="11" x="121" y="407" fill="#000"/><rect width="11" height="11" x="143" y="407" fill="#000"/><rect width="11" height="11" x="154" y="407" fill="#000"/><rect width="11" height="11" x="165" y="407" fill="#000"/><rect width="11" height="11" x="176" y="407" fill="#000"/><rect width="11" height="11" x="198" y="407" fill="#000"/><rect width="11" height="11" x="231" y="407" fill="#000"/><rect width="11" height="11" x="242" y="407" fill="#000"/><rect width="11" height="11" x="253" y="407" fill="#000"/><rect width="11" height="11" x="286" y="407" fill="#000"/><rect width="11" height="11" x="308" y="407" fill="#000"/><rect width="11" height="11" x="319" y="407" fill="#000"/><rect width="11" height="11" x="330" y="407" fill="#000"/><rect width="11" height="11" x="352" y="407" fill="#000"/><rect width="11" height="11" x="363" y="407" fill="#000"/><rect width="11" height="11" x="396" y="407" fill="#000"/><rect width="11" height="11" x="440" y="407" fill="#000"/><rect width="11" height="11" x="0" y="418" fill="#000"/><rect width="11" height="11" x="22" y="418" fill="#000"/><rect width="11" height="11" x="33" y="418" fill="#000"/><rect width="11" height="11" x="44" y="418" fill="#000"/><rect width="11" height="11" x="66" y="418" fill="#000"/><rect width="11" height="11" x="88" y="418" fill="#000"/><rect width="11" height="11" x="99" y="418" fill="#000"/><rect width="11" height="11" x="110" y="418" fill="#000"/><rect width="11" height="11" x="121" y="418" fill="#000"/><rect width="11" height="11" x="132" y="418" fill="#000"/><rect width="11" height="11" x="143" y="418" fill="#000"/><rect width="11" height="11" x="165" y="418" fill="#000"/><rect width="11" height="11" x="176" y="418" fill="#000"/><rect width="11" height="11" x="187" y="418" fill="#000"/><rect width="11" height="11" x="231" y="418" fill="#000"/><rect width="11" height="11" x="264" y="418" fill="#000"/><rect width="11" height="11" x="352" y="418" fill="#000"/><rect width="11" height="11" x="385" y="418" fill="#000"/><rect width="11" height="11" x="396" y="418" fill="#000"/><rect width="11" height="11" x="440" y="418" fill="#000"/><rect width="11" height="11" x="0" y="429" fill="#000"/><rect width="11" height="11" x="66" y="429" fill="#000"/><rect width="11" height="11" x="110" y="429" fill="#000"/><rect width="11" height="11" x="143" y="429" fill="#000"/><rect width="11" height="11" x="154" y="429" fill="#000"/><rect width="11" height="11" x="165" y="429" fill="#000"/><rect width="11" height="11" x="176" y="429" fill="#000"/><rect width="11" height="11" x="198" y="429" fill="#000"/><rect width="11" height="11" x="209" y="429" fill="#000"/><rect width="11" height="11" x="220" y="429" fill="#000"/><rect width="11" height="11" x="231" y="429" fill="#000"/><rect width="11" height="11" x="242" y="429" fill="#000"/><rect width="11" height="11" x="253" y="429" fill="#000"/><rect width="11" height="11" x="264" y="429" fill="#000"/><rect width="11" height="11" x="275" y="429" fill="#000"/><rect width="11" height="11" x="286" y="429" fill="#000"/><rect width="11" height="11" x="297" y="429" fill="#000"/><rect width="11" height="11" x="319" y="429" fill="#000"/><rect width="11" height="11" x="330" y="429" fill="#000"/><rect width="11" height="11" x="341" y="429" fill="#000"/><rect width="11" height="11" x="352" y="429" fill="#000"/><rect width="11" height="11" x="374" y="429" fill="#000"/><rect width="11" height="11" x="385" y="429" fill="#000"/><rect width="11" height="11" x="429" y="429" fill="#000"/><rect width="11" height="11" x="0" y="440" fill="#000"/><rect width="11" height="11" x="11" y="440" fill="#000"/><rect width="11" height="11" x="22" y="440" fill="#000"/><rect width="11" height="11" x="33" y="440" fill="#000"/><rect width="11" height="11" x="44" y="440" fill="#000"/><rect width="11" height="11" x="55" y="440" fill="#000"/><rect width="11" height="11" x="66" y="440" fill="#000"/><rect width="11" height="11" x="110" y="440" fill="#000"/><rect width="11" height="11" x="121" y="440" fill="#000"/><rect width="11" height="11" x="143" y="440" fill="#000"/><rect width="11" height="11" x="165" y="440" fill="#000"/><rect width="11" height="11" x="187" y="440" fill="#000"/><rect width="11" height="11" x="209" y="440" fill="#000"/><rect width="11" height="11" x="231" y="440" fill="#000"/><rect width="11" height="11" x="275" y="440" fill="#000"/><rect width="11" height="11" x="286" y="440" fill="#000"/><rect width="11" height="11" x="319" y="440" fill="#000"/><rect width="11" height="11" x="341" y="440" fill="#000"/><rect width="11" height="11" x="352" y="440" fill="#000"/><rect width="11" height="11" x="363" y="440" fill="#000"/><rect width="11" height="11" x="385" y="440" fill="#000"/><rect width="11" height="11" x="396" y="440" fill="#000"/><rect width="11" height="11" x="429" y="440" fill="#000"/><rect width="11" height="11" x="440" y="440" fill="#000"/></svg>